<svg width="185" height="67" viewBox="0 0 185 67" fill="none" xmlns="http://www.w3.org/2000/svg">
<path d="M18.2628 40.8997L10.8606 33.317L23.8596 20.6791C25.9057 18.994 31.7312 16.1655 38.664 18.332C40.7101 18.9338 45.4885 21.5457 48.2327 27.1786L49.677 26.0953V38.1916L50.7603 39.4554L41.1916 49.2046C36.3771 49.8666 25.665 49.7463 21.332 43.9689L28.7342 36.5667C29.1555 37.2287 30.5757 38.5888 32.8867 38.7332H39.0251V32.5948C38.3631 29.9469 35.5587 25.5176 29.6369 28.984L18.2628 40.8997Z" fill="#FF451B"/>
<path d="M49.1805 26.666V18H59.652V30.999L50.2638 40.0261L49 38.9428L49.1805 26.666Z" fill="#F5BD02"/>
<path d="M54.1904 42.3441L61.5926 34.9419L64.8424 38.0111C65.0831 38.1314 65.709 38.2638 66.2867 37.8305L70.2586 33.6781V17.4293L80.73 17.2488V33.6781L85.063 38.0111H86.5074L90.8404 33.6781V17.0682H101.312V23.2067C102.154 21.7021 105.067 18.332 109.978 17.6099L110.88 17.4293L111.783 17.2488H112.686H113.589H114.672L115.575 17.4293L117.38 17.7904C120.028 18.332 125.902 20.9679 128.212 27.1786L128.393 27.5397L130.198 25.7342V17.0682H140.489V30.0672L121.171 49.2046H112.686C110.64 49.2648 105.573 48.3019 101.673 43.9689L108.714 36.5667C109.195 37.1685 110.519 38.4444 111.964 38.7332H119.185V32.0532C118.764 30.6089 117.163 27.6841 114.13 27.5397C113.589 27.4795 112.217 27.5397 111.061 28.2618L92.2847 46.6771C91.6227 47.3391 89.9016 48.6991 88.3128 48.8436L87 49H86H85L83.6187 48.8436C81.9938 48.2418 78.1302 46.2438 75.6749 43.0662C74.7722 44.2698 71.9196 47.1104 67.7311 48.8436C66.9487 49.0843 64.9146 49.4213 63.037 48.8436C62.0139 48.7834 58.8123 47.3992 54.1904 42.3441Z" fill="#F5BD02" stroke="#F5BD02" stroke-width="1.5"/>
<path d="M132.004 44.8716C133.328 46.5567 137.204 49.7824 142.114 49.2046L150.419 40.8997L143.197 33.678L132.004 44.8716Z" fill="#F5BD02" stroke="#F5BD02"/>
<path d="M150.6 40.7191L162.696 28.8034L166.668 33.3169V35.664C166.126 37.2287 163.924 39.9247 159.446 38.1915L152.225 45.4132C155.354 48.0612 163.527 51.8766 171.182 45.9548L184 33.3169L176.778 26.0953L175.334 27.5396L175.154 27.7201L169.196 20.679V17.2487H159.446L143.378 33.4975L150.6 40.7191Z" fill="#FF451B" stroke="#FF451B"/>
<circle cx="135.254" cy="6.95787" r="5.95787" fill="#F5BD02"/>
<path d="M46.6078 12.677L32.4052 4.61084L4 17.8963V49.2121L32.4052 62.0231L45.9903 56.8038" stroke="#FF451B" stroke-width="8"/>
</svg>
