<svg width="73" height="61" viewBox="0 0 73 61" fill="none" xmlns="http://www.w3.org/2000/svg">
<g filter="url(#filter0_d_398_50)">
<path d="M9.448 5.784C9.27733 5.86933 9.10667 5.912 8.936 5.912C8.76533 5.912 8.68 5.82667 8.68 5.656C8.68 5.48533 9.64 4.76 11.56 3.48C13.48 2.2 15.144 1.56 16.552 1.56C18.0027 1.56 19.0053 1.79467 19.56 2.264C20.1573 2.69067 20.456 3.58667 20.456 4.952C20.456 6.31733 19.5173 8.55733 17.64 11.672C17.896 11.4587 18.3867 11.0107 19.112 10.328C19.8373 9.60267 20.392 9.06933 20.776 8.728C21.16 8.38667 21.6933 7.91733 22.376 7.32C23.1013 6.72267 23.6987 6.25333 24.168 5.912C24.68 5.57067 25.256 5.22933 25.896 4.888C27.1333 4.20533 28.3067 3.864 29.416 3.864C30.7813 3.864 31.464 4.97333 31.464 7.192C31.464 8.64267 31.0373 10.2213 30.184 11.928L29.8 12.824C30.44 12.184 31.592 11.2027 33.256 9.88C34.8773 8.6 36.328 7.55467 37.608 6.744C40.9787 4.568 43.752 3.48 45.928 3.48C48.1467 3.48 49.256 4.46133 49.256 6.424C49.256 7.448 48.5093 9.19733 47.016 11.672C45.5653 14.104 43.9653 16.664 42.216 19.352C40.4667 21.9973 38.8453 25.2613 37.352 29.144C35.9013 32.984 35.176 36.5893 35.176 39.96C35.176 43.3733 36.008 46.3813 37.672 48.984C39.3787 51.5867 41.8107 52.888 44.968 52.888C48.168 52.888 51.88 51.3733 56.104 48.344C60.328 45.3573 63.5067 42.3067 65.64 39.192C65.8107 38.936 65.9813 38.808 66.152 38.808C66.3227 38.808 66.408 38.872 66.408 39C66.408 39.128 66.3653 39.2773 66.28 39.448C63.2933 43.5013 59.6667 46.9787 55.4 49.88C51.176 52.824 47.2293 54.296 43.56 54.296C39.8907 54.296 36.8613 53.0373 34.472 50.52C32.1253 48.0027 30.952 44.8453 30.952 41.048C30.952 37.2933 31.592 33.5173 32.872 29.72C34.1947 25.88 35.624 22.7013 37.16 20.184C38.696 17.6667 40.104 15.2773 41.384 13.016C42.7067 10.712 43.368 9.112 43.368 8.216C43.368 7.27733 42.856 6.808 41.832 6.808C40.2107 6.808 38.0987 7.74667 35.496 9.624C32.936 11.5013 30.8027 13.464 29.096 15.512C27.3893 17.56 25.6187 18.584 23.784 18.584C23.528 18.584 23.4 18.4133 23.4 18.072C23.4 17.7307 23.464 17.4747 23.592 17.304C23.72 17.0907 23.912 16.9413 24.168 16.856C24.424 16.728 24.5947 16.6213 24.68 16.536C26.3867 12.8667 27.24 10.4133 27.24 9.176C27.24 7.93867 26.8987 7.32 26.216 7.32C24.4667 7.32 21.48 9.58133 17.256 14.104C16.1893 15.256 14.4187 17.9867 11.944 22.296C9.46933 26.5627 8.12533 28.824 7.912 29.08C7.74133 29.336 7.50667 29.5493 7.208 29.72C6.952 29.8907 6.58933 30.0827 6.12 30.296C5.69333 30.4667 5.07467 30.7653 4.264 31.192C3.45333 31.6613 2.89867 31.896 2.6 31.896C2.30133 31.896 2.152 31.7253 2.152 31.384C2.152 31.0427 2.36533 30.6373 2.792 30.168C3.26133 29.656 3.98667 28.568 4.968 26.904C5.992 25.24 7.272 23.0213 8.808 20.248C10.3867 17.4747 11.3253 15.8533 11.624 15.384C11.9227 14.872 12.2427 14.3173 12.584 13.72C12.9253 13.08 13.1813 12.6107 13.352 12.312C13.5227 12.0133 13.736 11.608 13.992 11.096C14.2907 10.584 14.504 10.2 14.632 9.944C14.8027 9.64533 14.9947 9.304 15.208 8.92C15.4213 8.49333 15.5707 8.152 15.656 7.896C15.784 7.64 15.8907 7.36267 15.976 7.064C16.1467 6.50933 16.232 5.99733 16.232 5.528C16.232 4.07733 15.592 3.352 14.312 3.352C13.416 3.352 11.7947 4.16267 9.448 5.784Z" fill="#F5BD02"/>
</g>
<defs>
<filter id="filter0_d_398_50" x="0.4521" y="0.860059" width="71.6559" height="60.1358" filterUnits="userSpaceOnUse" color-interpolation-filters="sRGB">
<feFlood flood-opacity="0" result="BackgroundImageFix"/>
<feColorMatrix in="SourceAlpha" type="matrix" values="0 0 0 0 0 0 0 0 0 0 0 0 0 0 0 0 0 0 127 0" result="hardAlpha"/>
<feOffset dx="2" dy="3"/>
<feGaussianBlur stdDeviation="1.85"/>
<feComposite in2="hardAlpha" operator="out"/>
<feColorMatrix type="matrix" values="0 0 0 0 0 0 0 0 0 0 0 0 0 0 0 0 0 0 0.49 0"/>
<feBlend mode="normal" in2="BackgroundImageFix" result="effect1_dropShadow_398_50"/>
<feBlend mode="normal" in="SourceGraphic" in2="effect1_dropShadow_398_50" result="shape"/>
</filter>
</defs>
</svg>
