<svg width="1498" height="738" viewBox="0 0 1498 738" fill="none" xmlns="http://www.w3.org/2000/svg">
<path d="M0 0H1498V430.5L0 737.5V0Z" fill="#0E2A47"/>
<path d="M53.1484 190L75.8098 213.641" stroke="#FF451B" stroke-width="1.5" stroke-linecap="round"/>
<path d="M53.1484 213.334L76.115 190" stroke="#FF451B" stroke-width="1.5" stroke-linecap="round"/>
<path d="M1388.75 246L1411.41 269.641" stroke="#F5BD02" stroke-width="1.5" stroke-linecap="round"/>
<path d="M1388.75 269.334L1411.72 246" stroke="#F5BD02" stroke-width="1.5" stroke-linecap="round"/>
<path d="M546.248 392L568.91 415.641" stroke="#F5BD02" stroke-width="1.5" stroke-linecap="round"/>
<path d="M546.248 415.334L569.215 392" stroke="#F5BD02" stroke-width="1.5" stroke-linecap="round"/>
<path d="M1314.93 112L1337.59 135.641" stroke="#FF451B" stroke-width="1.5" stroke-linecap="round"/>
<path d="M1314.93 135.334L1337.9 112" stroke="#FF451B" stroke-width="1.5" stroke-linecap="round"/>
<path d="M1314.93 112L1337.59 135.641" stroke="#FF451B" stroke-width="1.5" stroke-linecap="round"/>
<path d="M1314.93 135.334L1337.9 112" stroke="#FF451B" stroke-width="1.5" stroke-linecap="round"/>
<path d="M53.1484 577L75.8098 600.641" stroke="#FF451B" stroke-width="1.5" stroke-linecap="round"/>
<path d="M53.1484 600.334L76.115 577" stroke="#FF451B" stroke-width="1.5" stroke-linecap="round"/>
<path d="M615.145 268.5C615.145 278.165 607.433 286 597.921 286C588.408 286 580.697 278.165 580.697 268.5C580.697 258.835 588.408 251 597.921 251C607.433 251 615.145 258.835 615.145 268.5ZM581.345 268.5C581.345 277.801 588.766 285.341 597.921 285.341C607.075 285.341 614.496 277.801 614.496 268.5C614.496 259.199 607.075 251.659 597.921 251.659C588.766 251.659 581.345 259.199 581.345 268.5Z" fill="#FF451B"/>
<path d="M1165.33 199C1165.33 206.732 1159.16 213 1151.55 213C1143.94 213 1137.77 206.732 1137.77 199C1137.77 191.268 1143.94 185 1151.55 185C1159.16 185 1165.33 191.268 1165.33 199ZM1139.83 199C1139.83 205.579 1145.08 210.913 1151.55 210.913C1158.03 210.913 1163.28 205.579 1163.28 199C1163.28 192.421 1158.03 187.087 1151.55 187.087C1145.08 187.087 1139.83 192.421 1139.83 199Z" fill="#FF451B"/>
<path d="M207.673 591C207.673 598.732 201.504 605 193.893 605C186.283 605 180.114 598.732 180.114 591C180.114 583.268 186.283 577 193.893 577C201.504 577 207.673 583.268 207.673 591ZM180.628 591C180.628 598.443 186.567 604.478 193.893 604.478C201.22 604.478 207.159 598.443 207.159 591C207.159 583.557 201.22 577.522 193.893 577.522C186.567 577.522 180.628 583.557 180.628 591Z" fill="#FF451B"/>
<path d="M1366.99 428.801C1368.38 431.536 1370.48 433.836 1373.06 435.456C1375.63 437.076 1378.59 437.955 1381.62 437.998C1384.65 438.042 1387.64 437.249 1390.26 435.704C1392.88 434.159 1395.04 431.92 1396.5 429.226L1394.32 428C1393.07 430.292 1391.24 432.197 1389.01 433.512C1386.78 434.827 1384.24 435.502 1381.66 435.464C1379.08 435.427 1376.56 434.68 1374.37 433.301C1372.18 431.923 1370.39 429.966 1369.21 427.638L1366.99 428.801Z" fill="#FF451B"/>
<path d="M526.461 567.801C527.851 570.536 529.946 572.836 532.523 574.456C535.099 576.076 538.06 576.955 541.09 576.998C544.12 577.042 547.104 576.249 549.725 574.704C552.345 573.159 554.504 570.92 555.97 568.226L553.787 567C552.54 569.292 550.703 571.197 548.473 572.512C546.243 573.827 543.703 574.502 541.125 574.464C538.547 574.427 536.028 573.68 533.835 572.301C531.643 570.923 529.86 568.966 528.677 566.638L526.461 567.801Z" fill="#F5BD02"/>
<path d="M737.189 428.5C737.189 448.658 721.105 465 701.265 465C681.424 465 665.34 448.658 665.34 428.5C665.34 408.342 681.424 392 701.265 392C721.105 392 737.189 408.342 737.189 428.5ZM666.018 428.5C666.018 448.278 681.799 464.311 701.265 464.311C720.731 464.311 736.511 448.278 736.511 428.5C736.511 408.722 720.731 392.689 701.265 392.689C681.799 392.689 666.018 408.722 666.018 428.5Z" fill="#F5BD02"/>
<path d="M35.9593 395C35.9593 413.225 21.4176 428 3.47963 428C-14.4584 428 -29 413.225 -29 395C-29 376.775 -14.4584 362 3.47963 362C21.4176 362 35.9593 376.775 35.9593 395ZM-28.3752 395C-28.3752 412.875 -14.1133 427.365 3.47963 427.365C21.0726 427.365 35.3345 412.875 35.3345 395C35.3345 377.125 21.0726 362.635 3.47963 362.635C-14.1133 362.635 -28.3752 377.125 -28.3752 395Z" fill="#FF451B"/>
<ellipse cx="1448.79" cy="347" rx="21.6531" ry="22" fill="#FF451B"/>
<rect x="329.233" y="230.5" width="38.3693" height="39" stroke="#F5BD02"/>
<rect x="344.981" y="246.5" width="38.3693" height="39" stroke="#FF451B"/>
<rect x="779.027" y="491.5" width="38.3693" height="39" stroke="#FF451B"/>
<rect x="794.775" y="507.5" width="38.3693" height="39" stroke="#F5BD02"/>
<rect x="958.157" y="258.5" width="38.3693" height="39" stroke="#F5BD02"/>
</svg>
