<svg width="141" height="182" viewBox="0 0 141 182" fill="none" xmlns="http://www.w3.org/2000/svg">
<path d="M50.5 111.674L30 90.6735L66 55.6735C71.6667 51.0069 87.8 43.1735 107 49.1735C112.667 50.8402 125.9 58.0736 133.5 73.6736L137.5 70.6736V104.174L140.5 107.674L114 134.674C100.667 136.507 71 136.174 59 120.174L79.5 99.6736C80.6667 101.507 84.6 105.274 91 105.674H108V88.6736C106.167 81.3402 98.4 69.0736 82 78.6736L50.5 111.674Z" fill="#FF451B"/>
<path d="M128 34.3388L88.6667 12L10 48.7934V135.521L88.6667 171L126.29 156.545" stroke="#FF451B" stroke-width="20"/>
</svg>
