<svg width="44" height="44" viewBox="0 0 44 44" fill="none" xmlns="http://www.w3.org/2000/svg">
<path d="M21.1621 9.58958C21.1168 9.5783 21.0829 9.55572 21.0376 9.54443C20.9698 9.66859 20.8906 9.79275 20.8227 9.91691C18.243 15.4477 15.6747 20.9785 13.0951 26.5092C12.9593 26.7914 12.9706 27.0172 13.0838 27.2993C14.2605 29.997 15.4145 32.7059 16.5685 35.4149C16.6591 35.6294 16.7043 35.8777 16.7043 36.1034C16.7269 36.6452 16.7156 37.1983 16.7156 37.7401C20.1664 37.7401 23.5494 37.7401 26.9776 37.7401C26.9776 37.3224 27.0002 36.9274 26.9776 36.5436C26.9436 35.9905 27.0794 35.4939 27.2944 34.9973C28.4032 32.4576 29.4893 29.8954 30.5981 27.3558C30.7452 27.0284 30.7339 26.7688 30.5755 26.4415C30.0663 25.4031 29.5911 24.3534 29.1046 23.3036C27.0341 18.8564 24.975 14.4093 22.9045 9.96206C22.8366 9.81533 22.7348 9.67988 22.6442 9.54443C22.6103 9.55572 22.5764 9.5783 22.5424 9.58958C22.5424 14.1158 22.5424 18.642 22.5424 23.1682C26.0498 23.631 28.2448 26.735 27.9053 29.8841C27.5772 32.8527 25.0881 35.1891 22.1917 35.2907C19.1029 35.4036 16.4441 33.3606 15.8897 30.4259C15.6068 28.9586 15.8105 27.5589 16.5572 26.2609C17.5868 24.4775 19.1595 23.4955 21.1621 23.1795C21.1621 18.6194 21.1621 14.1045 21.1621 9.58958Z" fill="url(#paint0_linear_10_44)" stroke="url(#paint1_linear_10_44)" stroke-width="0.25"/>
<path d="M29.9994 39.1284C24.546 39.1284 19.1378 39.1284 13.707 39.1284C13.707 40.4265 13.707 41.7019 13.707 43C19.1491 43 24.5686 43 29.9994 43C29.9994 41.6906 29.9994 40.4265 29.9994 39.1284Z" fill="url(#paint2_linear_10_44)" stroke="url(#paint3_linear_10_44)" stroke-width="0.25"/>
<path d="M16.9766 29.2182C16.9766 31.9046 19.1602 34.0943 21.8417 34.1056C24.5344 34.1169 26.7407 31.9384 26.752 29.2634C26.7633 26.5657 24.6023 24.376 21.9095 24.3647C19.1602 24.3421 16.9766 26.5093 16.9766 29.2182Z" fill="url(#paint4_linear_10_44)" stroke="url(#paint5_linear_10_44)" stroke-width="0.25"/>
<path d="M24.3656 1C24.886 1.27089 25.0897 1.69981 25.0444 2.28675C25.0105 2.69309 25.0331 3.09944 25.0331 3.55093C25.2254 3.55093 25.3725 3.55093 25.5309 3.55093C29.5135 3.55093 33.5074 3.55093 37.49 3.56221C37.7955 3.56221 37.9539 3.50578 38.0897 3.18973C38.5648 2.04972 39.7641 1.45149 40.9748 1.69981C42.1288 1.93684 43 3.00914 43 4.1943C43 5.37947 42.1741 6.4179 41.02 6.67751C39.8207 6.9484 38.6101 6.37275 38.1123 5.25531C37.9765 4.95055 37.8294 4.84896 37.49 4.84896C34.8312 4.86025 32.1723 4.86025 29.5135 4.86025C29.3777 4.86025 29.242 4.86025 29.1062 4.86025C29.0949 4.89411 29.0836 4.92798 29.0723 4.96184C31.8895 6.16958 34.2881 7.93039 36.2228 10.2781C38.1688 12.6372 39.4474 15.3236 40.0809 18.3486C40.624 18.3486 41.1445 18.3373 41.6649 18.3486C42.3325 18.3598 42.6945 18.6985 42.6945 19.3757C42.7058 20.7979 42.7058 22.2201 42.6945 23.6536C42.6945 24.3082 42.3325 24.692 41.6762 24.692C40.2393 24.7033 38.7911 24.7033 37.3542 24.692C36.732 24.6807 36.3473 24.297 36.3473 23.6762C36.336 22.2427 36.336 20.7979 36.3473 19.3644C36.3586 18.721 36.7433 18.3711 37.3995 18.3598C37.7955 18.3486 38.1915 18.3598 38.5875 18.3486C38.6101 18.3486 38.644 18.326 38.7232 18.3034C38.0783 15.3687 36.7433 12.7839 34.7293 10.5603C32.1271 7.68207 28.9025 5.8874 25.0444 5.14243C25.0444 5.54878 25.0444 5.92126 25.0444 6.28245C25.0331 6.98226 24.6711 7.36603 23.9809 7.37732C22.5666 7.3886 21.1523 7.3886 19.7381 7.37732C19.0705 7.37732 18.6972 6.99355 18.6859 6.3276C18.6859 5.97769 18.6859 5.62779 18.6859 5.21016C15.2464 5.90997 12.3273 7.4789 9.87213 9.92824C7.50746 12.2873 5.96874 15.0978 5.23332 18.4163C5.6972 18.4163 6.08188 18.4163 6.47788 18.4163C7.2133 18.4276 7.57535 18.7775 7.57535 19.5112C7.57535 20.9108 7.57535 22.2991 7.57535 23.6987C7.57535 24.3985 7.22461 24.7597 6.54576 24.7597C5.12018 24.771 3.69459 24.771 2.25769 24.7597C1.57884 24.7597 1.21679 24.376 1.21679 23.6987C1.20547 22.2991 1.20547 20.9108 1.21679 19.5112C1.21679 18.8113 1.59016 18.4389 2.29163 18.4276C2.78946 18.4163 3.27597 18.4163 3.77379 18.4163C3.79642 18.4163 3.83036 18.3937 3.8643 18.3824C5.32383 12.118 9.01225 7.67079 14.9409 4.95055C14.7938 4.92798 14.7033 4.89411 14.6014 4.89411C11.8634 4.89411 9.11408 4.89411 6.37605 4.88283C6.04794 4.88283 5.99137 5.06342 5.88954 5.28917C5.39172 6.38404 4.22636 6.97098 3.061 6.73394C1.8617 6.48562 1.02445 5.49234 1.00182 4.27331C0.956563 3.05429 1.75987 2.01586 2.91391 1.72239C4.14716 1.40634 5.40303 2.03843 5.92348 3.25746C6.00268 3.44934 6.07057 3.55093 6.30816 3.55093C10.3813 3.53964 14.4544 3.53964 18.5275 3.53964C18.5501 3.53964 18.584 3.52835 18.6745 3.51706C18.6745 3.11072 18.6972 2.69309 18.6632 2.28675C18.618 1.69981 18.8216 1.28218 19.3534 1.01129C21.0279 1 22.6911 1 24.3656 1ZM23.8338 2.21903C22.4874 2.21903 21.1863 2.21903 19.8852 2.21903C19.8852 3.53964 19.8852 4.82639 19.8852 6.12443C21.2089 6.12443 22.5214 6.12443 23.8338 6.12443C23.8338 4.8151 23.8338 3.53964 23.8338 2.21903ZM2.4274 19.6014C2.4274 20.9221 2.4274 22.2088 2.4274 23.4956C3.75116 23.4956 5.05229 23.4956 6.36473 23.4956C6.36473 22.1862 6.36473 20.8995 6.36473 19.6014C5.04098 19.6014 3.73985 19.6014 2.4274 19.6014ZM37.5692 23.4617C38.9043 23.4617 40.1941 23.4617 41.4952 23.4617C41.4952 22.1411 41.4952 20.8543 41.4952 19.545C40.1828 19.545 38.893 19.545 37.5692 19.545C37.5692 20.8543 37.5692 22.1411 37.5692 23.4617ZM3.55882 5.4359C4.24898 5.4359 4.79206 4.88283 4.79206 4.1943C4.79206 3.50578 4.23767 2.9527 3.55882 2.9527C2.85734 2.94141 2.29163 3.51706 2.30295 4.21688C2.31426 4.89411 2.86866 5.4359 3.55882 5.4359ZM40.4204 2.9527C39.7415 2.96399 39.1871 3.51707 39.1871 4.20559C39.1871 4.89411 39.7415 5.44719 40.4204 5.44719C41.1218 5.44719 41.6876 4.88283 41.6762 4.18301C41.6649 3.4832 41.0992 2.94141 40.4204 2.9527Z" fill="url(#paint6_linear_10_44)" stroke="url(#paint7_linear_10_44)" stroke-width="0.25"/>
<defs>
<linearGradient id="paint0_linear_10_44" x1="13.9994" y1="9.54443" x2="36.9088" y2="25.4302" gradientUnits="userSpaceOnUse">
<stop offset="0.259336" stop-color="#FFDB6E"/>
<stop offset="1" stop-color="#FFBC5E"/>
</linearGradient>
<linearGradient id="paint1_linear_10_44" x1="13.9994" y1="9.54443" x2="36.9088" y2="25.4302" gradientUnits="userSpaceOnUse">
<stop offset="0.259336" stop-color="#FFDB6E"/>
<stop offset="1" stop-color="#FFBC5E"/>
</linearGradient>
<linearGradient id="paint2_linear_10_44" x1="14.6303" y1="39.1284" x2="16.0119" y2="45.5489" gradientUnits="userSpaceOnUse">
<stop offset="0.259336" stop-color="#FFDB6E"/>
<stop offset="1" stop-color="#FFBC5E"/>
</linearGradient>
<linearGradient id="paint3_linear_10_44" x1="14.6303" y1="39.1284" x2="16.0119" y2="45.5489" gradientUnits="userSpaceOnUse">
<stop offset="0.259336" stop-color="#FFDB6E"/>
<stop offset="1" stop-color="#FFBC5E"/>
</linearGradient>
<linearGradient id="paint4_linear_10_44" x1="17.5305" y1="24.3645" x2="25.9374" y2="33.6805" gradientUnits="userSpaceOnUse">
<stop offset="0.259336" stop-color="#FFDB6E"/>
<stop offset="1" stop-color="#FFBC5E"/>
</linearGradient>
<linearGradient id="paint5_linear_10_44" x1="17.5305" y1="24.3645" x2="25.9374" y2="33.6805" gradientUnits="userSpaceOnUse">
<stop offset="0.259336" stop-color="#FFDB6E"/>
<stop offset="1" stop-color="#FFBC5E"/>
</linearGradient>
<linearGradient id="paint6_linear_10_44" x1="3.38" y1="1" x2="20.1193" y2="33.6631" gradientUnits="userSpaceOnUse">
<stop offset="0.259336" stop-color="#FFDB6E"/>
<stop offset="1" stop-color="#FFBC5E"/>
</linearGradient>
<linearGradient id="paint7_linear_10_44" x1="3.38" y1="1" x2="20.1193" y2="33.6631" gradientUnits="userSpaceOnUse">
<stop offset="0.259336" stop-color="#FFDB6E"/>
<stop offset="1" stop-color="#FFBC5E"/>
</linearGradient>
</defs>
</svg>
