<svg width="2071" height="522" viewBox="0 0 2071 522" fill="none" xmlns="http://www.w3.org/2000/svg">
<g clip-path="url(#clip0_637_14)">
<path d="M0 59.4454L49.4739 46.8958C98.9478 34.5664 197.896 9.46723 296.383 18.7143C395.101 27.9613 493.128 71.1143 591.846 72.2151C690.333 73.3159 789.281 32.3647 887.769 13.2101C986.486 -5.94454 1084.51 -2.86216 1183.23 19.1546C1281.72 41.1715 1380.67 82.1227 1479.15 95.7731C1577.87 109.424 1675.9 95.3328 1774.62 74.8571C1873.1 54.3815 1972.05 27.0807 2021.53 13.6504L2071 0V524H2021.53C1972.05 524 1873.1 524 1774.62 524C1675.9 524 1577.87 524 1479.15 524C1380.67 524 1281.72 524 1183.23 524C1084.51 524 986.486 524 887.769 524C789.281 524 690.333 524 591.846 524C493.128 524 395.101 524 296.383 524C197.896 524 98.9478 524 49.4739 524H0V59.4454Z" fill="#0E2A47"/>
<path d="M0 221.344L49.4739 217.308C98.9478 213.049 197.896 204.978 296.383 178.747C395.101 152.517 493.128 108.576 591.846 105.213C690.333 101.85 789.281 139.066 887.769 160.812C986.486 182.559 1084.51 188.388 1183.23 187.267C1281.72 186.146 1380.67 178.075 1479.15 157.898C1577.87 137.721 1675.9 105.437 1774.62 105.437C1873.1 105.437 1972.05 137.721 2021.53 153.638L2071 169.78V524H2021.53C1972.05 524 1873.1 524 1774.62 524C1675.9 524 1577.87 524 1479.15 524C1380.67 524 1281.72 524 1183.23 524C1084.51 524 986.486 524 887.769 524C789.281 524 690.333 524 591.846 524C493.128 524 395.101 524 296.383 524C197.896 524 98.9478 524 49.4739 524H0V221.344Z" fill="#0A2B4D"/>
<path d="M0 272.893L49.4739 270.546C98.9478 268.199 197.896 263.506 296.383 247.782C395.101 232.293 493.128 205.54 591.846 208.825C690.333 211.876 789.281 244.731 887.769 254.118C986.486 263.506 1084.51 249.425 1183.23 231.824C1281.72 214.223 1380.67 193.102 1479.15 178.552C1577.87 164.236 1675.9 156.257 1774.62 156.022C1873.1 155.553 1972.05 162.593 2021.53 166.114L2071 169.634V524H2021.53C1972.05 524 1873.1 524 1774.62 524C1675.9 524 1577.87 524 1479.15 524C1380.67 524 1281.72 524 1183.23 524C1084.51 524 986.486 524 887.769 524C789.281 524 690.333 524 591.846 524C493.128 524 395.101 524 296.383 524C197.896 524 98.9478 524 49.4739 524H0V272.893Z" fill="#072C52"/>
<path d="M0 292.712L49.4739 300.071C98.9478 307.693 197.896 322.411 296.383 318.995C395.101 315.578 493.128 293.5 591.846 299.282C690.333 305.065 789.281 338.181 887.769 337.918C986.486 337.393 1084.51 303.225 1183.23 299.808C1281.72 296.129 1380.67 323.463 1479.15 321.097C1577.87 318.995 1675.9 287.455 1774.62 282.724C1873.1 277.731 1972.05 299.808 2021.53 310.584L2071 321.623V524H2021.53C1972.05 524 1873.1 524 1774.62 524C1675.9 524 1577.87 524 1479.15 524C1380.67 524 1281.72 524 1183.23 524C1084.51 524 986.486 524 887.769 524C789.281 524 690.333 524 591.846 524C493.128 524 395.101 524 296.383 524C197.896 524 98.9478 524 49.4739 524H0V292.712Z" fill="#052D57"/>
<path d="M0 365.006L49.4739 362.954C98.9478 360.646 197.896 356.543 296.383 354.748C395.101 352.953 493.128 353.979 591.846 353.466C690.333 352.953 789.281 351.414 887.769 359.364C986.486 367.57 1084.51 385.521 1183.23 401.42C1281.72 417.063 1380.67 430.911 1479.15 438.861C1577.87 447.067 1675.9 449.632 1774.62 443.733C1873.1 437.579 1972.05 423.218 2021.53 415.781L2071 408.601V524H2021.53C1972.05 524 1873.1 524 1774.62 524C1675.9 524 1577.87 524 1479.15 524C1380.67 524 1281.72 524 1183.23 524C1084.51 524 986.486 524 887.769 524C789.281 524 690.333 524 591.846 524C493.128 524 395.101 524 296.383 524C197.896 524 98.9478 524 49.4739 524H0V365.006Z" fill="#032E5C"/>
</g>
<defs>
<clipPath id="clip0_637_14">
<rect width="2071" height="522" fill="white"/>
</clipPath>
</defs>
</svg>
