<svg width="50" height="50" viewBox="0 0 40 40" fill="none" xmlns="http://www.w3.org/2000/svg">
<path d="M20 0C8.955 0 0 8.955 0 20C0 31.045 8.955 40 20 40C31.045 40 40 31.045 40 20C40 14.6957 37.8929 9.60859 34.1421 5.85786C30.3914 2.10714 25.3043 0 20 0ZM20.05 4.02833C24.2833 4.02833 28.0383 5.545 31.0833 8.48167C32.55 9.89833 33.5333 11.2383 34.375 12.9733C35.5133 15.3217 35.975 17.3633 35.975 20.0567C35.975 23.605 34.95 26.6983 32.8233 29.5767C32.0253 30.6065 31.1251 31.5529 30.1367 32.4017C27.8494 34.2591 25.0981 35.4561 22.18 35.8633C21.1967 35.9933 18.8767 36.0083 17.975 35.8933C15.1733 35.5333 12.4933 34.4167 10.155 32.6333C9.39167 32.0517 7.96167 30.6117 7.33667 29.7967C5.58667 27.515 4.49833 24.925 4.14 22.1867C3.98667 21.015 3.98667 18.86 4.14 17.7883C4.91333 12.4333 8.28333 7.84167 13.1233 5.54667C15.3733 4.48 17.435 4.03 20.0517 4.03M19.9983 6.44667C17.6308 6.42111 15.2998 7.0312 13.2483 8.21333C11.3067 9.30833 9.29833 11.3183 8.19833 13.27C7.38029 14.7279 6.82675 16.3191 6.56333 17.97C6.41167 18.9917 6.40833 21.02 6.55667 21.9983C6.8569 23.9676 7.57892 25.8488 8.67333 27.5133C9.26167 28.3983 9.24333 28.39 9.76167 28.0933C10.69 27.5617 10.9317 27.305 11.4367 26.315C12.0283 25.1567 12.66 24.145 13.23 23.4433C13.89 22.6317 13.98 22.4883 14.31 21.7217C14.4767 21.3367 14.7767 20.7717 14.9733 20.4633L15.335 19.9067L14.8683 19.4483C14.2483 18.84 13.7317 18.1483 13.635 17.7983C13.535 17.4383 13.6533 17.2383 14.1183 16.9683C14.59 16.6967 14.9267 16.6183 16.185 16.49C16.7983 16.4267 17.4633 16.3117 17.6733 16.2317C17.8817 16.1533 18.5033 15.8133 19.0567 15.4783C20.6533 14.5117 20.7883 14.4617 21.745 14.4817C22.5533 14.4983 22.555 14.4983 23.0333 14.2083C24.0383 13.6017 25.4817 12.5067 27.3783 10.9083C27.7433 10.6033 28.0933 10.3617 28.1583 10.375C28.425 10.425 28.92 11.6367 28.995 12.4267C29.04 12.9067 28.9467 13.3817 28.6617 14.1233C28.585 14.3267 28.55 14.52 28.5833 14.5533C28.665 14.635 28.9433 14.2867 28.9433 14.1033C28.9433 13.87 29.0983 13.8433 29.3083 14.04C29.46 14.1833 29.5917 14.2233 29.8983 14.2233C30.2333 14.2233 30.315 14.2567 30.4467 14.43C30.6683 14.725 30.72 15.5317 30.5517 16.0433C30.385 16.54 29.885 17.1133 29.435 17.3267C29.0283 17.5167 28.2083 18.3183 27.8233 18.8983C27.6083 19.2344 27.4043 19.5773 27.2117 19.9267C27.0217 20.2717 26.7033 20.79 26.5033 21.0817C26.1117 21.655 25.775 22.4533 25.4517 23.585C25.26 24.2483 25.245 24.4217 25.2367 25.9033C25.2267 27.695 25.135 28.1333 24.65 28.685C24.1 29.3117 23.55 30.6883 23.505 31.5567C23.4828 32.0561 23.4046 32.5514 23.2717 33.0333C23.2183 33.2067 23.3167 33.205 23.905 33.02C25.5198 32.5294 27.0297 31.7439 28.3583 30.7033C29.075 30.1467 30.3117 28.8967 30.83 28.2083C32.2383 26.3417 33.1967 24.0033 33.4767 21.745C33.6133 20.6567 33.535 18.355 33.3267 17.3567C32.7767 14.7117 31.595 12.4767 29.7333 10.5633C28.5717 9.37167 27.515 8.585 26.1533 7.90333C24.09 6.87 22.32 6.44833 19.9983 6.44667ZM22.525 15.305L21.365 15.4667L20.6433 16.3917L21.8033 16.2283L22.525 15.305Z" fill="#F5BD02"/>
</svg>
